<svg xmlns="http://www.w3.org/2000/svg" viewBox="0 0 38 24" width="38" height="24" role="img" aria-labelledby="pi-apple_pay"><title id="pi-apple_pay">Apple Pay</title><path opacity=".07" d="M35 0H3C1.3 0 0 1.3 0 3v18c0 1.7 1.4 3 3 3h32c1.7 0 3-1.3 3-3V3c0-1.7-1.4-3-3-3z"/><path fill="#fff" d="M35 1c1.1 0 2 .9 2 2v18c0 1.1-.9 2-2 2H3c-1.1 0-2-.9-2-2V3c0-1.1.9-2 2-2h32"/><path fill="#000" d="M12.3 8.2c.3-.4.6-.9.5-1.5-.5 0-1.1.4-1.5.8-.3.4-.6.9-.5 1.4.6.1 1.1-.3 1.5-.7zm.5.8c-.8 0-1.5.5-1.9.5s-1-.5-1.7-.5c-.9 0-1.7.5-2.1 1.3-.9 1.6-.2 3.9.6 5.2.4.6.9 1.3 1.6 1.3.6 0 .9-.4 1.6-.4.7 0 .9.4 1.6.4.7 0 1.1-.6 1.5-1.2.5-.7.7-1.4.7-1.4s-1.3-.5-1.3-2 1.1-2.1 1.1-2.1-1-.7-1.7-.7z"/><path fill="#000" d="M19.8 6.7h3.2c2.2 0 3.7 1.5 3.7 3.8 0 2.3-1.5 3.8-3.7 3.8h-2.1V18h-1.1V6.7zm1.1 6.6h1.8c1.5 0 2.4-1 2.4-2.8 0-1.7-.9-2.8-2.4-2.8h-1.8v5.6zm7.3 5c-.1-.4-.1-2.1-.1-4.7 0-1.6-.9-2.5-2.4-2.5-.9 0-1.7.4-2.3 1.1l-.5-.8c.7-.7 1.6-1.2 2.9-1.2 1.9 0 3.2 1.2 3.2 3.3v4.8h-1l.2-.8c-.5.7-1.4 1.1-2.4 1.1-1.5 0-2.5-.8-2.5-2.1 0-1.4 1.1-2.1 2.8-2.1.5 0 1.2.1 1.7.2v-.3zm-2.2.7c1.1 0 1.9-.6 2.2-1.6v-.8c-.4-.1-1-.2-1.5-.2-1.2 0-1.9.5-1.9 1.3 0 .8.5 1.3 1.2 1.3z"/></svg>