<svg xmlns="http://www.w3.org/2000/svg" viewBox="0 0 38 24" width="38" height="24" role="img" aria-labelledby="pi-diners_club"><title id="pi-diners_club">Diners Club</title><path opacity=".07" d="M35 0H3C1.3 0 0 1.3 0 3v18c0 1.7 1.4 3 3 3h32c1.7 0 3-1.3 3-3V3c0-1.7-1.4-3-3-3z"/><path fill="#fff" d="M35 1c1.1 0 2 .9 2 2v18c0 1.1-.9 2-2 2H3c-1.1 0-2-.9-2-2V3c0-1.1.9-2 2-2h32"/><path d="M12 12v3.7c0 .3-.2.3-.5.2-1.9-.8-3-2.8-2.8-4.7.2-2.3 2.1-4.1 4.4-4.4 2.6-.4 5 1.2 5.8 3.5.2.6.3 1.3.3 2v.1c0 .1 0 .2-.1.3 0 .1-.1.1-.2.2-.1 0-.2.1-.3.1s-.2-.1-.3-.2c0-.1-.1-.2-.1-.3v-.1c0-.4-.1-.8-.2-1.2-.6-2.1-2.5-3.5-4.7-3.4-2.3.2-4.1 2-4.3 4.3 0 .5 0 1 .2 1.5.3 1.1 1 2.1 1.8 2.7.2.2.4 0 .4-.2V12h1.6zm-1.9 0H8.6c-.1 0-.2.1-.3.2 0 .1-.1.2-.1.3v.1c.1 1.2.6 2.4 1.4 3.3.3.3.6.6 1 .8.1.1.3.2.5.2s.3-.1.4-.3c0-.1 0-.1.1-.2v-.3-.8-3c0-.1 0-.2-.1-.2-.1-.1-.2-.1-.3-.1H10zm8 0h-1.4c-.1 0-.2.1-.3.2 0 .1-.1.2-.1.3v3.2c0 .2.2.4.4.5.5.3 1.1.4 1.7.4 1.7-.1 3.2-1.3 3.7-2.9.1-.3.1-.6.2-1 0-.1 0-.2-.1-.3 0-.1-.1-.2-.2-.2s-.2-.1-.3-.1h-1.3c-.1 0-.2.1-.3.2 0 .1-.1.2-.1.3v3c0 .2-.1.4-.3.5-.6.3-1.3.2-1.8-.1-.2-.1-.3-.3-.3-.5v-3c0-.2-.1-.4-.3-.5-.1 0-.2-.1-.3-.1z" fill="#0079BE"/></svg>