<svg xmlns="http://www.w3.org/2000/svg" viewBox="0 0 38 24" width="38" height="24" role="img" aria-labelledby="pi-discover"><title id="pi-discover">Discover</title><path d="M35 0H3C1.3 0 0 1.3 0 3v18c0 1.7 1.4 3 3 3h32c1.7 0 3-1.3 3-3V3c0-1.7-1.4-3-3-3z" fill="#000" opacity=".07"/><path d="M35 1c1.1 0 2 .9 2 2v18c0 1.1-.9 2-2 2H3c-1.1 0-2-.9-2-2V3c0-1.1.9-2 2-2h32" fill="#fff"/><path d="M38 12v10c0 1.1-.9 2-2 2H13.6L38 12z" fill="#EBB220"/><path d="M9 13c0-1.5-1-2.5-2.4-2.5H4v5h2.6c1.4 0 2.4-1 2.4-2.5zm-1.1 0c0 1-.6 1.6-1.4 1.6H5v-3.2h1.5c.8 0 1.4.6 1.4 1.6zm2.1 2.5h.9v-5h-.9v5zm4.4-2.2c-.7-.3-.9-.5-.9-.8 0-.4.3-.6.8-.6.4 0 .7.1 1 .4l.5-.7c-.5-.4-1-.5-1.5-.5-1 0-1.7.6-1.7 1.4 0 .7.3 1 1.2 1.4.4.1.5.2.6.2.2.1.3.3.3.5 0 .4-.4.7-.9.7-.5 0-.9-.2-1.3-.6l-.6.7c.6.5 1.2.8 1.9.8 1.1 0 1.8-.6 1.8-1.6 0-.8-.4-1.1-1.2-1.3zm1.9.3c0 1.5 1.1 2.5 2.6 2.5.4 0 .8-.1 1.3-.3V14c-.4.4-.8.6-1.3.6-.9 0-1.6-.7-1.6-1.6s.6-1.6 1.5-1.6c.5 0 1 .2 1.4.6v-1.7c-.4-.2-.8-.3-1.3-.3-1.5 0-2.6 1-2.6 2.5zm11.1 2.2l-1.8-5h-1l2.1 5h1.4l2-5h-1l-1.7 5zm3.1 0h2.8v-.8h-1.9v-1.3h1.8v-.9h-1.8v-1.2h1.9v-.8h-2.8v5zm4.7-2.6c.4-.2.6-.6.6-1.1 0-.9-.6-1.3-1.6-1.3h-1.6v5h.9v-2h.4l1.2 2h1.1l-1.3-2.1c.1 0 .2-.1.3-.2v-.3zm-1.7-.3v-1.2h.6c.5 0 .7.2.7.6 0 .4-.2.6-.7.6h-.6z" fill="#221F20"/></svg>