<svg xmlns="http://www.w3.org/2000/svg" viewBox="0 0 38 24" width="38" height="24" role="img" aria-labelledby="pi-google_pay"><title id="pi-google_pay">Google Pay</title><path opacity=".07" d="M35 0H3C1.3 0 0 1.3 0 3v18c0 1.7 1.4 3 3 3h32c1.7 0 3-1.3 3-3V3c0-1.7-1.4-3-3-3z"/><path fill="#fff" d="M35 1c1.1 0 2 .9 2 2v18c0 1.1-.9 2-2 2H3c-1.1 0-2-.9-2-2V3c0-1.1.9-2 2-2h32"/><path fill="#4285F4" d="M18.6 11.8c0-.5 0-.9-.1-1.3h-3.8v2.5h2.2c-.1.5-.4 1-.9 1.3v1.1h1.4c.9-.8 1.4-2 1.2-3.6z"/><path fill="#34A853" d="M14.7 17c1.2 0 2.3-.4 3-1.1l-1.5-1.2c-.4.3-.9.5-1.5.5-1.2 0-2.2-.8-2.5-1.8h-1.5v1.2c.8 1.5 2.3 2.4 4 2.4z"/><path fill="#FBBC05" d="M12.2 13.4c-.2-.5-.2-1 0-1.5V10.7h-1.5c-.6 1.1-.6 2.4 0 3.5l1.5-1.2z"/><path fill="#EA4335" d="M14.7 10.1c.6 0 1.2.2 1.7.7l1.3-1.3c-.8-.8-1.9-1.2-3-1.2-1.7 0-3.2.9-4 2.4l1.5 1.2c.3-1 1.3-1.8 2.5-1.8z"/><path fill="#4285F4" d="M27.6 11.3c0-.2 0-.4-.1-.6h-4.4v1.3h2.5c-.1.5-.5.9-.9 1.2v1h1.5c.9-.8 1.4-2 1.4-2.9z"/><path fill="#34A853" d="M23.1 15c1.2 0 2.1-.4 2.9-1l-1.4-1.1c-.4.3-.9.4-1.5.4-1.2 0-2.2-.8-2.5-1.9h-1.5v1.2c.8 1.4 2.2 2.4 4 2.4z"/><path fill="#FBBC05" d="M20.6 11.9c-.1-.3-.1-.7 0-1v-1h-1.5c-.4.8-.4 1.7 0 2.5l1.5-.5z"/><path fill="#EA4335" d="M23.1 9c.6 0 1.2.2 1.7.6l1.2-1.2c-.8-.7-1.8-1.1-2.9-1.1-1.7 0-3.3.9-4 2.4l1.5.5c.3-1.4 1.3-2.2 2.5-2.2z"/></svg>