<svg xmlns="http://www.w3.org/2000/svg" viewBox="0 0 38 24" width="38" height="24" role="img" aria-labelledby="pi-shopify_pay"><title id="pi-shopify_pay">Shop Pay</title><path opacity=".07" d="M35 0H3C1.3 0 0 1.3 0 3v18c0 1.7 1.4 3 3 3h32c1.7 0 3-1.3 3-3V3c0-1.7-1.4-3-3-3z"/><path fill="#5A31F4" d="M35 1c1.1 0 2 .9 2 2v18c0 1.1-.9 2-2 2H3c-1.1 0-2-.9-2-2V3c0-1.1.9-2 2-2h32"/><path fill="#fff" d="M13.3 11.1c-.5-.2-.8-.4-.8-.6 0-.2.2-.4.6-.4.6 0 1.1.3 1.1.3l.4-.9s-.4-.3-1.4-.3c-1.2 0-2 .7-2 1.6 0 .5.4 1 1.1 1.3.5.2.7.4.7.7 0 .3-.2.5-.7.5-.6 0-1.3-.4-1.3-.4l-.4.9s.5.4 1.6.4c1.3 0 2.1-.6 2.1-1.6 0-.6-.5-1.1-1-1.5zm3.8-.9c-.6 0-1 .3-1.3.7l-.1-.6h-1.2v5.3l1.4-.3v-1.3c.3.2.6.3 1 .3 1 0 1.9-.8 1.9-2.2.1-1.2-.7-1.9-1.7-1.9zm-.4 2.9c-.3 0-.5-.1-.7-.3v-1.6c.2-.2.4-.3.7-.3.5 0 .8.5.8 1.1s-.3 1.1-.8 1.1zm6.2-2.9c-1.2 0-2 1-2 2.1 0 1.2.9 2.1 2.2 2.1.6 0 1.1-.1 1.5-.4l-.4-.9c-.3.2-.6.3-1 .3-.5 0-.9-.2-1-.7h2.5v-.4c.1-1.1-.6-2.1-1.8-2.1zm-.9 1.7c.1-.4.3-.7.8-.7s.7.3.7.7h-1.5zm5.3-1.7c-.6 0-1 .3-1.2.6l-.1-.5h-1.2v4.2h1.4v-2.1c0-.6.3-1 .8-1 .2 0 .3 0 .5.1l.2-1.2c-.1 0-.3-.1-.4-.1zm-15.5.3h.8v-.9h-.8v-1.1l-1.4.3v.8H10v.9h.9v1.8c0 .9.4 1.5 1.4 1.5.4 0 .8-.1 1-.2l-.3-1c-.1.1-.3.1-.5.1-.3 0-.5-.2-.5-.6v-1.6z"/></svg>