<svg xmlns="http://www.w3.org/2000/svg" viewBox="0 0 38 24" width="38" height="24" role="img" aria-labelledby="pi-visa"><title id="pi-visa">Visa</title><path opacity=".07" d="M35 0H3C1.3 0 0 1.3 0 3v18c0 1.7 1.4 3 3 3h32c1.7 0 3-1.3 3-3V3c0-1.7-1.4-3-3-3z"/><path fill="#fff" d="M35 1c1.1 0 2 .9 2 2v18c0 1.1-.9 2-2 2H3c-1.1 0-2-.9-2-2V3c0-1.1.9-2 2-2h32"/><path d="M28.3 10.1H28c-.4 1-.7 1.5-1 3h1.9c-.3-1.5-.3-2.2-.6-3zm2.9 5.9h-1.7c-.1 0-.1 0-.2-.1l-.2-.9-.1-.2h-2.4c-.1 0-.2 0-.2.2l-.3.9c0 .1-.1.1-.1.1h-2.1l.2-.5L27 8.7c0-.5.3-.7.8-.7h1.5c.1 0 .2 0 .2.2l1.4 6.5c.1.4.2.7.2 1.1.1.1.1.1.1.2zm-13.4-.3l.4-1.8c.1 0 .2.1.2.1.7.3 1.4.5 2.1.4.2 0 .5-.1.7-.2.5-.2.5-.7.1-1.1-.2-.2-.5-.3-.8-.5-.4-.2-.8-.4-1.1-.7-1.2-1-.8-2.4-.1-3.1.6-.6 1.3-.8 2.1-.9.8-.1 1.5 0 2.2.3.1.1.2.1.2.1v.1l-.4 1.7v.1c-.1 0-.1 0-.2-.1-.5-.2-1-.3-1.6-.3-.3 0-.5 0-.7.1-.3.1-.4.4-.4.7 0 .2.2.4.4.5.2.2.5.3.8.5.6.2 1 .5 1.4.9.7.5.9 1.3.7 2.1-.2.8-.6 1.4-1.2 1.8-.8.6-1.8.7-2.8.5-.6-.1-1.2-.3-1.8-.6h-.1v-.2zm-3.5.3c.1-.7.1-.7.2-1 .5-2.2 1-4.5 1.4-6.7.1-.2.1-.3.3-.3H18c-.2 1.2-.4 2.1-.7 3.2-.3 1.5-.6 3-1 4.5 0 .2-.1.2-.3.2h-1.7c-.1 0-.1 0-.1-.1zm-4.4 0c.4-.4.8-.8 1.2-1.2l.6-.6c1-1 1.7-1.8 2.4-2.7l.2-.2h2.1c0 .2-.1.4-.2.5L11.8 15c-.2.2-.4.4-.7.5h-1.7c-.2 0-.4-.1-.5-.3zm-4.1.2c.1-.4.2-.8.3-1.1l1.7-6.6c.1-.2.1-.3.3-.3h2.2c.1 0 .1.1.1.1l-.4 1.3c-.1.4-.2.6-.4 1-.6 1.2-1.1 2.4-1.7 3.6-.2.5-.4.9-.7 1.3-.2.3-.3.5-.6.6-.2.1-.3.2-.5.2H2.5c-.1 0-.1 0-.1-.1zm11.5-7.6l-.4.9h2v-.1l-.5-.9h-1.1z" fill="#142688"/></svg>